<svg width="1600" height="1000" viewBox="0 0 1600 1000" fill="none" xmlns="http://www.w3.org/2000/svg">
  <defs>
    <linearGradient id="heroGrad" x1="126" y1="238" x2="1388" y2="590" gradientUnits="userSpaceOnUse">
      <stop stop-color="#EAF8FB"/>
      <stop offset="1" stop-color="#F8FCFD"/>
    </linearGradient>
    <filter id="shadow" x="0" y="0" width="1600" height="1000" filterUnits="userSpaceOnUse" color-interpolation-filters="sRGB">
      <feFlood flood-opacity="0" result="BackgroundImageFix"/>
      <feColorMatrix in="SourceAlpha" type="matrix" values="0 0 0 0 0 0 0 0 0 0 0 0 0 0 0 0 0 0 127 0" result="hardAlpha"/>
      <feOffset dy="10"/>
      <feGaussianBlur stdDeviation="18"/>
      <feColorMatrix type="matrix" values="0 0 0 0 0.085 0 0 0 0 0.159 0 0 0 0 0.196 0 0 0 0.12 0"/>
      <feBlend mode="normal" in2="BackgroundImageFix" result="effect1_dropShadow_0_1"/>
      <feBlend mode="normal" in="SourceGraphic" in2="effect1_dropShadow_0_1" result="shape"/>
    </filter>
  </defs>

  <rect width="1600" height="1000" rx="36" fill="#F4F8FA"/>
  <rect x="58" y="58" width="1484" height="884" rx="30" fill="#FFFFFF" stroke="#DCE8EE" stroke-width="3"/>

  <g filter="url(#shadow)">
    <rect x="108" y="108" width="1384" height="92" rx="22" fill="#F9FCFD"/>
    <circle cx="142" cy="154" r="10" fill="#E76C74"/>
    <circle cx="174" cy="154" r="10" fill="#F2C44A"/>
    <circle cx="206" cy="154" r="10" fill="#56C66D"/>
    <rect x="260" y="144" width="98" height="20" rx="10" fill="#175661"/>
    <rect x="392" y="144" width="102" height="18" rx="9" fill="#9DB6C0"/>
    <rect x="524" y="144" width="102" height="18" rx="9" fill="#D6E5EA"/>
    <rect x="656" y="144" width="102" height="18" rx="9" fill="#D6E5EA"/>
    <rect x="1232" y="136" width="140" height="36" rx="18" fill="#25D366"/>
  </g>

  <rect x="122" y="240" width="1356" height="324" rx="32" fill="url(#heroGrad)"/>
  <rect x="178" y="298" width="252" height="20" rx="10" fill="#1D6F7F"/>
  <rect x="178" y="338" width="474" height="34" rx="17" fill="#13212A"/>
  <rect x="178" y="386" width="336" height="20" rx="10" fill="#7FA8B1"/>
  <rect x="178" y="424" width="208" height="54" rx="27" fill="#1D6F7F"/>
  <rect x="404" y="424" width="182" height="54" rx="27" fill="#FFFFFF" stroke="#DCE8EE" stroke-width="3"/>
  <circle cx="1216" cy="402" r="126" fill="#FFFFFF"/>
  <circle cx="1212" cy="378" r="92" fill="#F0F8FA"/>
  <rect x="1150" y="328" width="126" height="122" rx="44" fill="#1D6F7F"/>
  <rect x="1158" y="366" width="54" height="84" rx="26" fill="#F8FCFD"/>
  <rect x="1222" y="348" width="44" height="100" rx="21" fill="#8EB2BE"/>
  <circle cx="1234" cy="350" r="18" fill="#1D6F7F"/>

  <rect x="122" y="592" width="392" height="180" rx="24" fill="#FFFFFF" stroke="#E5EEF0" stroke-width="3"/>
  <rect x="154" y="632" width="184" height="20" rx="10" fill="#1D6F7F"/>
  <rect x="154" y="666" width="232" height="14" rx="7" fill="#DCE8EE"/>
  <rect x="154" y="692" width="188" height="14" rx="7" fill="#DCE8EE"/>

  <rect x="542" y="592" width="392" height="180" rx="24" fill="#FFFFFF" stroke="#E5EEF0" stroke-width="3"/>
  <rect x="574" y="632" width="164" height="20" rx="10" fill="#78A6B1"/>
  <rect x="574" y="666" width="242" height="14" rx="7" fill="#DCE8EE"/>
  <rect x="574" y="692" width="208" height="14" rx="7" fill="#DCE8EE"/>

  <rect x="962" y="592" width="516" height="180" rx="24" fill="#175661"/>
  <rect x="996" y="632" width="210" height="20" rx="10" fill="#FFFFFF"/>
  <rect x="996" y="666" width="318" height="14" rx="7" fill="#A7C7CD"/>
  <rect x="996" y="692" width="286" height="14" rx="7" fill="#A7C7CD"/>
  <rect x="1260" y="718" width="152" height="24" rx="12" fill="#25D366"/>

  <rect x="122" y="810" width="1356" height="84" rx="22" fill="#F8FBFC"/>
  <rect x="154" y="838" width="196" height="18" rx="9" fill="#1D6F7F"/>
  <rect x="372" y="838" width="180" height="18" rx="9" fill="#DCE8EE"/>
  <rect x="574" y="838" width="180" height="18" rx="9" fill="#DCE8EE"/>
  <rect x="776" y="838" width="180" height="18" rx="9" fill="#DCE8EE"/>
  <rect x="978" y="838" width="180" height="18" rx="9" fill="#DCE8EE"/>
  <rect x="1180" y="838" width="180" height="18" rx="9" fill="#DCE8EE"/>
</svg>