<svg width="1600" height="1000" viewBox="0 0 1600 1000" fill="none" xmlns="http://www.w3.org/2000/svg">
  <rect width="1600" height="1000" rx="36" fill="#F4F8FA"/>
  <rect x="64" y="64" width="1472" height="872" rx="30" fill="#FFFFFF" stroke="#DDEAF1" stroke-width="3"/>
  <rect x="112" y="112" width="1376" height="94" rx="24" fill="#F7FBFC"/>
  <rect x="150" y="142" width="130" height="34" rx="17" fill="#175661"/>
  <rect x="760" y="144" width="108" height="16" rx="8" fill="#9CB8C2"/>
  <rect x="894" y="144" width="108" height="16" rx="8" fill="#D7E6EA"/>
  <rect x="1028" y="144" width="108" height="16" rx="8" fill="#D7E6EA"/>
  <rect x="1162" y="144" width="108" height="16" rx="8" fill="#D7E6EA"/>
  <rect x="1298" y="136" width="132" height="34" rx="17" fill="#25D366"/>
  <rect x="112" y="246" width="650" height="292" rx="28" fill="#F7FBFC"/>
  <rect x="156" y="292" width="208" height="20" rx="10" fill="#175661"/>
  <rect x="156" y="328" width="362" height="24" rx="12" fill="#1E282B"/>
  <rect x="156" y="364" width="296" height="18" rx="9" fill="#94AAB0"/>
  <rect x="156" y="396" width="226" height="18" rx="9" fill="#D8E7EA"/>
  <rect x="156" y="438" width="190" height="44" rx="22" fill="#175661"/>
  <rect x="820" y="246" width="668" height="292" rx="28" fill="#ECF6F8"/>
  <circle cx="1110" cy="392" r="116" fill="#FFFFFF"/>
  <path d="M1060 390C1060 350 1092 318 1132 318H1148C1188 318 1220 350 1220 390V404C1220 444 1188 476 1148 476H1132C1092 476 1060 444 1060 404V390Z" fill="#175661"/>
  <path d="M1044 390C1044 343 1082 306 1129 306H1153C1200 306 1238 343 1238 390V409C1238 456 1200 494 1153 494H1129C1082 494 1044 456 1044 409V390Z" fill="#6E93A0"/>
  <rect x="112" y="582" width="420" height="206" rx="24" fill="#FFFFFF" stroke="#E5EEF0" stroke-width="3"/>
  <rect x="150" y="624" width="170" height="18" rx="9" fill="#175661"/>
  <rect x="150" y="660" width="250" height="16" rx="8" fill="#DDEAF1"/>
  <rect x="150" y="690" width="188" height="16" rx="8" fill="#DDEAF1"/>
  <rect x="562" y="582" width="420" height="206" rx="24" fill="#FFFFFF" stroke="#E5EEF0" stroke-width="3"/>
  <rect x="600" y="624" width="148" height="18" rx="9" fill="#6E93A0"/>
  <rect x="600" y="660" width="274" height="16" rx="8" fill="#DDEAF1"/>
  <rect x="600" y="690" width="220" height="16" rx="8" fill="#DDEAF1"/>
  <rect x="1012" y="582" width="476" height="206" rx="24" fill="#175661"/>
  <rect x="1050" y="624" width="220" height="18" rx="9" fill="#FFFFFF"/>
  <rect x="1050" y="660" width="326" height="16" rx="8" fill="#AFCAD0"/>
  <rect x="1050" y="690" width="284" height="16" rx="8" fill="#AFCAD0"/>
  <rect x="1230" y="724" width="154" height="22" rx="11" fill="#25D366"/>
  <rect x="112" y="828" width="1376" height="74" rx="20" fill="#F7FBFC"/>
  <rect x="142" y="850" width="220" height="18" rx="9" fill="#175661"/>
  <rect x="386" y="850" width="220" height="18" rx="9" fill="#DDEAF1"/>
  <rect x="630" y="850" width="220" height="18" rx="9" fill="#DDEAF1"/>
  <rect x="874" y="850" width="220" height="18" rx="9" fill="#DDEAF1"/>
  <rect x="1118" y="850" width="220" height="18" rx="9" fill="#DDEAF1"/>
</svg>